<svg width="1500" height="1500" viewBox="0 0 1500 1500" fill="none" xmlns="http://www.w3.org/2000/svg">
<g filter="url(#filter0_i_200_2)">
<g opacity="0.05">
<path opacity="0.05" d="M692.382 1365.32C698.139 1365.32 702.805 1360.66 702.805 1354.91C702.805 1349.16 698.139 1344.5 692.382 1344.5C686.628 1344.5 681.963 1349.16 681.963 1354.91C681.963 1360.66 686.628 1365.32 692.382 1365.32Z" fill="url(#paint0_linear_200_2)"/>
<path opacity="0.05" d="M634.747 1365.32C640.504 1365.32 645.17 1360.66 645.17 1354.91C645.17 1349.16 640.504 1344.5 634.747 1344.5C628.994 1344.5 624.328 1349.16 624.328 1354.91C624.328 1360.66 628.994 1365.32 634.747 1365.32Z" fill="url(#paint1_linear_200_2)"/>
<path opacity="0.05" d="M577.138 1365.32C582.895 1365.32 587.56 1360.66 587.56 1354.91C587.56 1349.16 582.895 1344.5 577.138 1344.5C571.384 1344.5 566.719 1349.16 566.719 1354.91C566.719 1360.66 571.384 1365.32 577.138 1365.32Z" fill="url(#paint2_linear_200_2)"/>
<path opacity="0.05" d="M519.532 1365.32C525.289 1365.32 529.955 1360.66 529.955 1354.91C529.955 1349.16 525.289 1344.5 519.532 1344.5C513.778 1344.5 509.109 1349.16 509.109 1354.91C509.109 1360.66 513.778 1365.32 519.532 1365.32Z" fill="url(#paint3_linear_200_2)"/>
<path opacity="0.05" d="M461.925 1365.32C467.682 1365.32 472.347 1360.66 472.347 1354.91C472.347 1349.16 467.682 1344.5 461.925 1344.5C456.171 1344.5 451.502 1349.16 451.502 1354.91C451.502 1360.66 456.171 1365.32 461.925 1365.32Z" fill="url(#paint4_linear_200_2)"/>
<path opacity="0.05" d="M404.276 1365.32C410.034 1365.32 414.699 1360.66 414.699 1354.91C414.699 1349.16 410.034 1344.5 404.276 1344.5C398.523 1344.5 393.857 1349.16 393.857 1354.91C393.857 1360.66 398.523 1365.32 404.276 1365.32Z" fill="url(#paint5_linear_200_2)"/>
<path opacity="0.05" d="M346.67 1365.32C352.425 1365.32 357.091 1360.66 357.091 1354.91C357.091 1349.16 352.425 1344.5 346.67 1344.5C340.914 1344.5 336.248 1349.16 336.248 1354.91C336.248 1360.66 340.914 1365.32 346.67 1365.32Z" fill="url(#paint6_linear_200_2)"/>
<path opacity="0.05" d="M289.068 1365.32C294.824 1365.32 299.49 1360.66 299.49 1354.91C299.49 1349.16 294.824 1344.5 289.068 1344.5C283.313 1344.5 278.646 1349.16 278.646 1354.91C278.646 1360.66 283.313 1365.32 289.068 1365.32Z" fill="url(#paint7_linear_200_2)"/>
<path opacity="0.05" d="M231.424 1365.32C237.179 1365.32 241.845 1360.66 241.845 1354.91C241.845 1349.16 237.179 1344.5 231.424 1344.5C225.668 1344.5 221.002 1349.16 221.002 1354.91C221.002 1360.66 225.668 1365.32 231.424 1365.32Z" fill="url(#paint8_linear_200_2)"/>
<path opacity="0.05" d="M173.814 1365.32C179.57 1365.32 184.236 1360.66 184.236 1354.91C184.236 1349.16 179.57 1344.5 173.814 1344.5C168.059 1344.5 163.393 1349.16 163.393 1354.91C163.393 1360.66 168.059 1365.32 173.814 1365.32Z" fill="url(#paint9_linear_200_2)"/>
</g>
<g opacity="0.1">
<path opacity="0.1" d="M692.382 1300.04C698.139 1300.04 702.805 1295.37 702.805 1289.62C702.805 1283.88 698.139 1279.22 692.382 1279.22C686.628 1279.22 681.963 1283.88 681.963 1289.62C681.963 1295.37 686.628 1300.04 692.382 1300.04Z" fill="url(#paint10_linear_200_2)"/>
<path opacity="0.1" d="M634.747 1300.04C640.504 1300.04 645.17 1295.37 645.17 1289.62C645.17 1283.88 640.504 1279.22 634.747 1279.22C628.994 1279.22 624.328 1283.88 624.328 1289.62C624.328 1295.37 628.994 1300.04 634.747 1300.04Z" fill="url(#paint11_linear_200_2)"/>
<path opacity="0.1" d="M577.138 1300.04C582.895 1300.04 587.56 1295.37 587.56 1289.62C587.56 1283.88 582.895 1279.22 577.138 1279.22C571.384 1279.22 566.719 1283.88 566.719 1289.62C566.719 1295.37 571.384 1300.04 577.138 1300.04Z" fill="url(#paint12_linear_200_2)"/>
<path opacity="0.1" d="M519.532 1300.04C525.289 1300.04 529.955 1295.37 529.955 1289.62C529.955 1283.88 525.289 1279.22 519.532 1279.22C513.778 1279.22 509.109 1283.88 509.109 1289.62C509.109 1295.37 513.778 1300.04 519.532 1300.04Z" fill="url(#paint13_linear_200_2)"/>
<path opacity="0.1" d="M461.925 1300.04C467.682 1300.04 472.347 1295.37 472.347 1289.62C472.347 1283.88 467.682 1279.22 461.925 1279.22C456.171 1279.22 451.502 1283.88 451.502 1289.62C451.502 1295.37 456.171 1300.04 461.925 1300.04Z" fill="url(#paint14_linear_200_2)"/>
<path opacity="0.1" d="M404.276 1300.04C410.034 1300.04 414.699 1295.37 414.699 1289.62C414.699 1283.88 410.034 1279.22 404.276 1279.22C398.523 1279.22 393.857 1283.88 393.857 1289.62C393.857 1295.37 398.523 1300.04 404.276 1300.04Z" fill="url(#paint15_linear_200_2)"/>
<path opacity="0.1" d="M346.67 1300.04C352.425 1300.04 357.091 1295.37 357.091 1289.62C357.091 1283.88 352.425 1279.22 346.67 1279.22C340.914 1279.22 336.248 1283.88 336.248 1289.62C336.248 1295.37 340.914 1300.04 346.67 1300.04Z" fill="url(#paint16_linear_200_2)"/>
<path opacity="0.1" d="M289.068 1300.04C294.824 1300.04 299.49 1295.37 299.49 1289.62C299.49 1283.88 294.824 1279.22 289.068 1279.22C283.313 1279.22 278.646 1283.88 278.646 1289.62C278.646 1295.37 283.313 1300.04 289.068 1300.04Z" fill="url(#paint17_linear_200_2)"/>
<path opacity="0.1" d="M231.424 1300.04C237.179 1300.04 241.845 1295.37 241.845 1289.62C241.845 1283.88 237.179 1279.22 231.424 1279.22C225.668 1279.22 221.002 1283.88 221.002 1289.62C221.002 1295.37 225.668 1300.04 231.424 1300.04Z" fill="url(#paint18_linear_200_2)"/>
<path opacity="0.1" d="M173.814 1300.04C179.57 1300.04 184.236 1295.37 184.236 1289.62C184.236 1283.88 179.57 1279.22 173.814 1279.22C168.059 1279.22 163.393 1283.88 163.393 1289.62C163.393 1295.37 168.059 1300.04 173.814 1300.04Z" fill="url(#paint19_linear_200_2)"/>
</g>
<g opacity="0.1">
<path opacity="0.1" d="M692.382 1234.75C698.139 1234.75 702.805 1230.09 702.805 1224.34C702.805 1218.59 698.139 1213.94 692.382 1213.94C686.628 1213.94 681.963 1218.59 681.963 1224.34C681.963 1230.09 686.628 1234.75 692.382 1234.75Z" fill="url(#paint20_linear_200_2)"/>
<path opacity="0.1" d="M634.747 1234.75C640.504 1234.75 645.17 1230.09 645.17 1224.34C645.17 1218.59 640.504 1213.94 634.747 1213.94C628.994 1213.94 624.328 1218.59 624.328 1224.34C624.328 1230.09 628.994 1234.75 634.747 1234.75Z" fill="url(#paint21_linear_200_2)"/>
<path opacity="0.1" d="M577.138 1234.75C582.895 1234.75 587.56 1230.09 587.56 1224.34C587.56 1218.59 582.895 1213.94 577.138 1213.94C571.384 1213.94 566.719 1218.59 566.719 1224.34C566.719 1230.09 571.384 1234.75 577.138 1234.75Z" fill="url(#paint22_linear_200_2)"/>
<path opacity="0.1" d="M519.532 1234.75C525.289 1234.75 529.955 1230.09 529.955 1224.34C529.955 1218.59 525.289 1213.94 519.532 1213.94C513.778 1213.94 509.109 1218.59 509.109 1224.34C509.109 1230.09 513.778 1234.75 519.532 1234.75Z" fill="url(#paint23_linear_200_2)"/>
<path opacity="0.1" d="M461.925 1234.75C467.682 1234.75 472.347 1230.09 472.347 1224.34C472.347 1218.59 467.682 1213.94 461.925 1213.94C456.171 1213.94 451.502 1218.59 451.502 1224.34C451.502 1230.09 456.171 1234.75 461.925 1234.75Z" fill="url(#paint24_linear_200_2)"/>
<path opacity="0.1" d="M404.276 1234.75C410.034 1234.75 414.699 1230.09 414.699 1224.34C414.699 1218.59 410.034 1213.94 404.276 1213.94C398.523 1213.94 393.857 1218.59 393.857 1224.34C393.857 1230.09 398.523 1234.75 404.276 1234.75Z" fill="url(#paint25_linear_200_2)"/>
<path opacity="0.1" d="M346.67 1234.75C352.425 1234.75 357.091 1230.09 357.091 1224.34C357.091 1218.59 352.425 1213.94 346.67 1213.94C340.914 1213.94 336.248 1218.59 336.248 1224.34C336.248 1230.09 340.914 1234.75 346.67 1234.75Z" fill="url(#paint26_linear_200_2)"/>
<path opacity="0.1" d="M289.068 1234.75C294.824 1234.75 299.49 1230.09 299.49 1224.34C299.49 1218.59 294.824 1213.94 289.068 1213.94C283.313 1213.94 278.646 1218.59 278.646 1224.34C278.646 1230.09 283.313 1234.75 289.068 1234.75Z" fill="url(#paint27_linear_200_2)"/>
<path opacity="0.1" d="M231.424 1234.75C237.179 1234.75 241.845 1230.09 241.845 1224.34C241.845 1218.59 237.179 1213.94 231.424 1213.94C225.668 1213.94 221.002 1218.59 221.002 1224.34C221.002 1230.09 225.668 1234.75 231.424 1234.75Z" fill="url(#paint28_linear_200_2)"/>
<path opacity="0.1" d="M173.814 1234.75C179.57 1234.75 184.236 1230.09 184.236 1224.34C184.236 1218.59 179.57 1213.94 173.814 1213.94C168.059 1213.94 163.393 1218.59 163.393 1224.34C163.393 1230.09 168.059 1234.75 173.814 1234.75Z" fill="url(#paint29_linear_200_2)"/>
</g>
<g opacity="0.2">
<path opacity="0.2" d="M692.382 1169.47C698.139 1169.47 702.805 1164.81 702.805 1159.07C702.805 1153.32 698.139 1148.65 692.382 1148.65C686.628 1148.65 681.963 1153.32 681.963 1159.07C681.963 1164.81 686.628 1169.47 692.382 1169.47Z" fill="url(#paint30_linear_200_2)"/>
<path opacity="0.2" d="M634.747 1169.47C640.504 1169.47 645.17 1164.81 645.17 1159.07C645.17 1153.32 640.504 1148.65 634.747 1148.65C628.994 1148.65 624.328 1153.32 624.328 1159.07C624.328 1164.81 628.994 1169.47 634.747 1169.47Z" fill="url(#paint31_linear_200_2)"/>
<path opacity="0.2" d="M577.138 1169.47C582.895 1169.47 587.56 1164.81 587.56 1159.07C587.56 1153.32 582.895 1148.65 577.138 1148.65C571.384 1148.65 566.719 1153.32 566.719 1159.07C566.719 1164.81 571.384 1169.47 577.138 1169.47Z" fill="url(#paint32_linear_200_2)"/>
<path opacity="0.2" d="M519.532 1169.47C525.289 1169.47 529.955 1164.81 529.955 1159.07C529.955 1153.32 525.289 1148.65 519.532 1148.65C513.778 1148.65 509.109 1153.32 509.109 1159.07C509.109 1164.81 513.778 1169.47 519.532 1169.47Z" fill="url(#paint33_linear_200_2)"/>
<path opacity="0.2" d="M461.925 1169.47C467.682 1169.47 472.347 1164.81 472.347 1159.07C472.347 1153.32 467.682 1148.65 461.925 1148.65C456.171 1148.65 451.502 1153.32 451.502 1159.07C451.502 1164.81 456.171 1169.47 461.925 1169.47Z" fill="url(#paint34_linear_200_2)"/>
<path opacity="0.2" d="M404.276 1169.47C410.034 1169.47 414.699 1164.81 414.699 1159.07C414.699 1153.32 410.034 1148.65 404.276 1148.65C398.523 1148.65 393.857 1153.32 393.857 1159.07C393.857 1164.81 398.523 1169.47 404.276 1169.47Z" fill="url(#paint35_linear_200_2)"/>
<path opacity="0.2" d="M346.67 1169.47C352.425 1169.47 357.091 1164.81 357.091 1159.07C357.091 1153.32 352.425 1148.65 346.67 1148.65C340.914 1148.65 336.248 1153.32 336.248 1159.07C336.248 1164.81 340.914 1169.47 346.67 1169.47Z" fill="url(#paint36_linear_200_2)"/>
<path opacity="0.2" d="M289.068 1169.47C294.824 1169.47 299.49 1164.81 299.49 1159.07C299.49 1153.32 294.824 1148.65 289.068 1148.65C283.313 1148.65 278.646 1153.32 278.646 1159.07C278.646 1164.81 283.313 1169.47 289.068 1169.47Z" fill="url(#paint37_linear_200_2)"/>
<path opacity="0.2" d="M231.424 1169.47C237.179 1169.47 241.845 1164.81 241.845 1159.07C241.845 1153.32 237.179 1148.65 231.424 1148.65C225.668 1148.65 221.002 1153.32 221.002 1159.07C221.002 1164.81 225.668 1169.47 231.424 1169.47Z" fill="url(#paint38_linear_200_2)"/>
<path opacity="0.2" d="M173.814 1169.47C179.57 1169.47 184.236 1164.81 184.236 1159.07C184.236 1153.32 179.57 1148.65 173.814 1148.65C168.059 1148.65 163.393 1153.32 163.393 1159.07C163.393 1164.81 168.059 1169.47 173.814 1169.47Z" fill="url(#paint39_linear_200_2)"/>
</g>
<g opacity="0.3">
<path opacity="0.3" d="M692.382 1104.22C698.139 1104.22 702.805 1099.56 702.805 1093.81C702.805 1088.07 698.139 1083.41 692.382 1083.41C686.628 1083.41 681.963 1088.07 681.963 1093.81C681.963 1099.56 686.628 1104.22 692.382 1104.22Z" fill="url(#paint40_linear_200_2)"/>
<path opacity="0.3" d="M634.747 1104.22C640.504 1104.22 645.17 1099.56 645.17 1093.81C645.17 1088.07 640.504 1083.41 634.747 1083.41C628.994 1083.41 624.328 1088.07 624.328 1093.81C624.328 1099.56 628.994 1104.22 634.747 1104.22Z" fill="url(#paint41_linear_200_2)"/>
<path opacity="0.3" d="M577.138 1104.22C582.895 1104.22 587.56 1099.56 587.56 1093.81C587.56 1088.07 582.895 1083.41 577.138 1083.41C571.384 1083.41 566.719 1088.07 566.719 1093.81C566.719 1099.56 571.384 1104.22 577.138 1104.22Z" fill="url(#paint42_linear_200_2)"/>
<path opacity="0.3" d="M519.532 1104.22C525.289 1104.22 529.955 1099.56 529.955 1093.81C529.955 1088.07 525.289 1083.41 519.532 1083.41C513.778 1083.41 509.109 1088.07 509.109 1093.81C509.109 1099.56 513.778 1104.22 519.532 1104.22Z" fill="url(#paint43_linear_200_2)"/>
<path opacity="0.3" d="M461.925 1104.22C467.682 1104.22 472.347 1099.56 472.347 1093.81C472.347 1088.07 467.682 1083.41 461.925 1083.41C456.171 1083.41 451.502 1088.07 451.502 1093.81C451.502 1099.56 456.171 1104.22 461.925 1104.22Z" fill="url(#paint44_linear_200_2)"/>
<path opacity="0.3" d="M404.276 1104.22C410.034 1104.22 414.699 1099.56 414.699 1093.81C414.699 1088.07 410.034 1083.41 404.276 1083.41C398.523 1083.41 393.857 1088.07 393.857 1093.81C393.857 1099.56 398.523 1104.22 404.276 1104.22Z" fill="url(#paint45_linear_200_2)"/>
<path opacity="0.3" d="M346.67 1104.22C352.425 1104.22 357.091 1099.56 357.091 1093.81C357.091 1088.07 352.425 1083.41 346.67 1083.41C340.914 1083.41 336.248 1088.07 336.248 1093.81C336.248 1099.56 340.914 1104.22 346.67 1104.22Z" fill="url(#paint46_linear_200_2)"/>
<path opacity="0.3" d="M289.068 1104.22C294.824 1104.22 299.49 1099.56 299.49 1093.81C299.49 1088.07 294.824 1083.41 289.068 1083.41C283.313 1083.41 278.646 1088.07 278.646 1093.81C278.646 1099.56 283.313 1104.22 289.068 1104.22Z" fill="url(#paint47_linear_200_2)"/>
<path opacity="0.3" d="M231.424 1104.22C237.179 1104.22 241.845 1099.56 241.845 1093.81C241.845 1088.07 237.179 1083.41 231.424 1083.41C225.668 1083.41 221.002 1088.07 221.002 1093.81C221.002 1099.56 225.668 1104.22 231.424 1104.22Z" fill="url(#paint48_linear_200_2)"/>
<path opacity="0.3" d="M173.814 1104.22C179.57 1104.22 184.236 1099.56 184.236 1093.81C184.236 1088.07 179.57 1083.41 173.814 1083.41C168.059 1083.41 163.393 1088.07 163.393 1093.81C163.393 1099.56 168.059 1104.22 173.814 1104.22Z" fill="url(#paint49_linear_200_2)"/>
</g>
<g opacity="0.4">
<path opacity="0.4" d="M692.382 1038.94C698.139 1038.94 702.805 1034.28 702.805 1028.53C702.805 1022.78 698.139 1018.13 692.382 1018.13C686.628 1018.13 681.963 1022.78 681.963 1028.53C681.963 1034.28 686.628 1038.94 692.382 1038.94Z" fill="url(#paint50_linear_200_2)"/>
<path opacity="0.4" d="M634.747 1038.94C640.504 1038.94 645.17 1034.28 645.17 1028.53C645.17 1022.78 640.504 1018.13 634.747 1018.13C628.994 1018.13 624.328 1022.78 624.328 1028.53C624.328 1034.28 628.994 1038.94 634.747 1038.94Z" fill="url(#paint51_linear_200_2)"/>
<path opacity="0.4" d="M577.138 1038.94C582.895 1038.94 587.56 1034.28 587.56 1028.53C587.56 1022.78 582.895 1018.13 577.138 1018.13C571.384 1018.13 566.719 1022.78 566.719 1028.53C566.719 1034.28 571.384 1038.94 577.138 1038.94Z" fill="url(#paint52_linear_200_2)"/>
<path opacity="0.4" d="M519.532 1038.94C525.289 1038.94 529.955 1034.28 529.955 1028.53C529.955 1022.78 525.289 1018.13 519.532 1018.13C513.778 1018.13 509.109 1022.78 509.109 1028.53C509.109 1034.28 513.778 1038.94 519.532 1038.94Z" fill="url(#paint53_linear_200_2)"/>
<path opacity="0.4" d="M461.925 1038.94C467.682 1038.94 472.347 1034.28 472.347 1028.53C472.347 1022.78 467.682 1018.13 461.925 1018.13C456.171 1018.13 451.502 1022.78 451.502 1028.53C451.502 1034.28 456.171 1038.94 461.925 1038.94Z" fill="url(#paint54_linear_200_2)"/>
<path opacity="0.4" d="M404.276 1038.94C410.034 1038.94 414.699 1034.28 414.699 1028.53C414.699 1022.78 410.034 1018.13 404.276 1018.13C398.523 1018.13 393.857 1022.78 393.857 1028.53C393.857 1034.28 398.523 1038.94 404.276 1038.94Z" fill="url(#paint55_linear_200_2)"/>
<path opacity="0.4" d="M346.67 1038.94C352.425 1038.94 357.091 1034.28 357.091 1028.53C357.091 1022.78 352.425 1018.13 346.67 1018.13C340.914 1018.13 336.248 1022.78 336.248 1028.53C336.248 1034.28 340.914 1038.94 346.67 1038.94Z" fill="url(#paint56_linear_200_2)"/>
<path opacity="0.4" d="M289.068 1038.94C294.824 1038.94 299.49 1034.28 299.49 1028.53C299.49 1022.78 294.824 1018.13 289.068 1018.13C283.313 1018.13 278.646 1022.78 278.646 1028.53C278.646 1034.28 283.313 1038.94 289.068 1038.94Z" fill="url(#paint57_linear_200_2)"/>
<path opacity="0.4" d="M231.424 1038.94C237.179 1038.94 241.845 1034.28 241.845 1028.53C241.845 1022.78 237.179 1018.13 231.424 1018.13C225.668 1018.13 221.002 1022.78 221.002 1028.53C221.002 1034.28 225.668 1038.94 231.424 1038.94Z" fill="url(#paint58_linear_200_2)"/>
<path opacity="0.4" d="M173.814 1038.94C179.57 1038.94 184.236 1034.28 184.236 1028.53C184.236 1022.78 179.57 1018.13 173.814 1018.13C168.059 1018.13 163.393 1022.78 163.393 1028.53C163.393 1034.28 168.059 1038.94 173.814 1038.94Z" fill="url(#paint59_linear_200_2)"/>
</g>
<g opacity="0.5">
<path opacity="0.5" d="M692.382 973.662C698.139 973.662 702.805 969 702.805 963.254C702.805 957.504 698.139 952.842 692.382 952.842C686.628 952.842 681.963 957.504 681.963 963.254C681.963 969 686.628 973.662 692.382 973.662Z" fill="url(#paint60_linear_200_2)"/>
<path opacity="0.5" d="M634.747 973.662C640.504 973.662 645.17 969 645.17 963.254C645.17 957.504 640.504 952.842 634.747 952.842C628.994 952.842 624.328 957.504 624.328 963.254C624.328 969 628.994 973.662 634.747 973.662Z" fill="url(#paint61_linear_200_2)"/>
<path opacity="0.5" d="M577.138 973.662C582.895 973.662 587.56 969 587.56 963.254C587.56 957.504 582.895 952.842 577.138 952.842C571.384 952.842 566.719 957.504 566.719 963.254C566.719 969 571.384 973.662 577.138 973.662Z" fill="url(#paint62_linear_200_2)"/>
<path opacity="0.5" d="M519.532 973.662C525.289 973.662 529.955 969 529.955 963.254C529.955 957.504 525.289 952.842 519.532 952.842C513.778 952.842 509.109 957.504 509.109 963.254C509.109 969 513.778 973.662 519.532 973.662Z" fill="url(#paint63_linear_200_2)"/>
<path opacity="0.5" d="M461.925 973.662C467.682 973.662 472.347 969 472.347 963.254C472.347 957.504 467.682 952.842 461.925 952.842C456.171 952.842 451.502 957.504 451.502 963.254C451.502 969 456.171 973.662 461.925 973.662Z" fill="url(#paint64_linear_200_2)"/>
<path opacity="0.5" d="M404.276 973.662C410.034 973.662 414.699 969 414.699 963.254C414.699 957.504 410.034 952.842 404.276 952.842C398.523 952.842 393.857 957.504 393.857 963.254C393.857 969 398.523 973.662 404.276 973.662Z" fill="url(#paint65_linear_200_2)"/>
<path opacity="0.5" d="M346.67 973.662C352.425 973.662 357.091 969 357.091 963.254C357.091 957.504 352.425 952.842 346.67 952.842C340.914 952.842 336.248 957.504 336.248 963.254C336.248 969 340.914 973.662 346.67 973.662Z" fill="url(#paint66_linear_200_2)"/>
<path opacity="0.5" d="M289.068 973.662C294.824 973.662 299.49 969 299.49 963.254C299.49 957.504 294.824 952.842 289.068 952.842C283.313 952.842 278.646 957.504 278.646 963.254C278.646 969 283.313 973.662 289.068 973.662Z" fill="url(#paint67_linear_200_2)"/>
<path opacity="0.5" d="M231.424 973.662C237.179 973.662 241.845 969 241.845 963.254C241.845 957.504 237.179 952.842 231.424 952.842C225.668 952.842 221.002 957.504 221.002 963.254C221.002 969 225.668 973.662 231.424 973.662Z" fill="url(#paint68_linear_200_2)"/>
<path opacity="0.5" d="M173.814 973.662C179.57 973.662 184.236 969 184.236 963.254C184.236 957.504 179.57 952.842 173.814 952.842C168.059 952.842 163.393 957.504 163.393 963.254C163.393 969 168.059 973.662 173.814 973.662Z" fill="url(#paint69_linear_200_2)"/>
</g>
<g opacity="0.6">
<path opacity="0.6" d="M692.382 908.378C698.139 908.378 702.805 903.72 702.805 897.97C702.805 892.22 698.139 887.562 692.382 887.562C686.628 887.562 681.963 892.22 681.963 897.97C681.963 903.72 686.628 908.378 692.382 908.378Z" fill="url(#paint70_linear_200_2)"/>
<path opacity="0.6" d="M634.747 908.378C640.504 908.378 645.17 903.72 645.17 897.97C645.17 892.22 640.504 887.562 634.747 887.562C628.994 887.562 624.328 892.22 624.328 897.97C624.328 903.72 628.994 908.378 634.747 908.378Z" fill="url(#paint71_linear_200_2)"/>
<path opacity="0.6" d="M577.138 908.378C582.895 908.378 587.56 903.72 587.56 897.97C587.56 892.22 582.895 887.562 577.138 887.562C571.384 887.562 566.719 892.22 566.719 897.97C566.719 903.72 571.384 908.378 577.138 908.378Z" fill="url(#paint72_linear_200_2)"/>
<path opacity="0.6" d="M519.532 908.378C525.289 908.378 529.955 903.72 529.955 897.97C529.955 892.22 525.289 887.562 519.532 887.562C513.778 887.562 509.109 892.22 509.109 897.97C509.109 903.72 513.778 908.378 519.532 908.378Z" fill="url(#paint73_linear_200_2)"/>
<path opacity="0.6" d="M461.925 908.378C467.682 908.378 472.347 903.72 472.347 897.97C472.347 892.22 467.682 887.562 461.925 887.562C456.171 887.562 451.502 892.22 451.502 897.97C451.502 903.72 456.171 908.378 461.925 908.378Z" fill="url(#paint74_linear_200_2)"/>
<path opacity="0.6" d="M404.276 908.378C410.034 908.378 414.699 903.72 414.699 897.97C414.699 892.22 410.034 887.562 404.276 887.562C398.523 887.562 393.857 892.22 393.857 897.97C393.857 903.72 398.523 908.378 404.276 908.378Z" fill="url(#paint75_linear_200_2)"/>
<path opacity="0.6" d="M346.67 908.378C352.425 908.378 357.091 903.72 357.091 897.97C357.091 892.22 352.425 887.562 346.67 887.562C340.914 887.562 336.248 892.22 336.248 897.97C336.248 903.72 340.914 908.378 346.67 908.378Z" fill="url(#paint76_linear_200_2)"/>
<path opacity="0.6" d="M289.068 908.378C294.824 908.378 299.49 903.72 299.49 897.97C299.49 892.22 294.824 887.562 289.068 887.562C283.313 887.562 278.646 892.22 278.646 897.97C278.646 903.72 283.313 908.378 289.068 908.378Z" fill="url(#paint77_linear_200_2)"/>
<path opacity="0.6" d="M231.424 908.378C237.179 908.378 241.845 903.72 241.845 897.97C241.845 892.22 237.179 887.562 231.424 887.562C225.668 887.562 221.002 892.22 221.002 897.97C221.002 903.72 225.668 908.378 231.424 908.378Z" fill="url(#paint78_linear_200_2)"/>
<path opacity="0.6" d="M173.814 908.378C179.57 908.378 184.236 903.72 184.236 897.97C184.236 892.22 179.57 887.562 173.814 887.562C168.059 887.562 163.393 892.22 163.393 897.97C163.393 903.72 168.059 908.378 173.814 908.378Z" fill="url(#paint79_linear_200_2)"/>
</g>
<path d="M692.386 843.098C698.143 843.098 702.808 838.44 702.808 832.69C702.808 826.94 698.143 822.282 692.386 822.282C686.632 822.282 681.967 826.94 681.967 832.69C681.967 838.44 686.632 843.098 692.386 843.098Z" fill="url(#paint80_linear_200_2)"/>
<path d="M634.749 843.098C640.506 843.098 645.172 838.44 645.172 832.69C645.172 826.94 640.506 822.282 634.749 822.282C628.996 822.282 624.33 826.94 624.33 832.69C624.33 838.44 628.996 843.098 634.749 843.098Z" fill="url(#paint81_linear_200_2)"/>
<path d="M577.14 843.098C582.897 843.098 587.562 838.44 587.562 832.69C587.562 826.94 582.897 822.282 577.14 822.282C571.386 822.282 566.721 826.94 566.721 832.69C566.721 838.44 571.386 843.098 577.14 843.098Z" fill="url(#paint82_linear_200_2)"/>
<path d="M519.534 843.098C525.291 843.098 529.957 838.44 529.957 832.69C529.957 826.94 525.291 822.282 519.534 822.282C513.78 822.282 509.111 826.94 509.111 832.69C509.111 838.44 513.78 843.098 519.534 843.098Z" fill="url(#paint83_linear_200_2)"/>
<path d="M461.925 843.098C467.682 843.098 472.347 838.44 472.347 832.69C472.347 826.94 467.682 822.282 461.925 822.282C456.171 822.282 451.502 826.94 451.502 832.69C451.502 838.44 456.171 843.098 461.925 843.098Z" fill="url(#paint84_linear_200_2)"/>
<path d="M404.278 843.098C410.036 843.098 414.701 838.44 414.701 832.69C414.701 826.94 410.036 822.282 404.278 822.282C398.525 822.282 393.859 826.94 393.859 832.69C393.859 838.44 398.525 843.098 404.278 843.098Z" fill="url(#paint85_linear_200_2)"/>
<path d="M346.672 843.098C352.427 843.098 357.093 838.44 357.093 832.69C357.093 826.94 352.427 822.282 346.672 822.282C340.916 822.282 336.25 826.94 336.25 832.69C336.25 838.44 340.916 843.098 346.672 843.098Z" fill="url(#paint86_linear_200_2)"/>
<path d="M289.062 843.098C294.818 843.098 299.484 838.44 299.484 832.69C299.484 826.94 294.818 822.282 289.062 822.282C283.306 822.282 278.641 826.94 278.641 832.69C278.641 838.44 283.306 843.098 289.062 843.098Z" fill="url(#paint87_linear_200_2)"/>
<path d="M231.424 843.098C237.179 843.098 241.845 838.44 241.845 832.69C241.845 826.94 237.179 822.282 231.424 822.282C225.668 822.282 221.002 826.94 221.002 832.69C221.002 838.44 225.668 843.098 231.424 843.098Z" fill="url(#paint88_linear_200_2)"/>
<path d="M173.816 843.098C179.572 843.098 184.238 838.44 184.238 832.69C184.238 826.94 179.572 822.282 173.816 822.282C168.061 822.282 163.395 826.94 163.395 832.69C163.395 838.44 168.061 843.098 173.816 843.098Z" fill="url(#paint89_linear_200_2)"/>
<path d="M433.1 1254.58V717.903" stroke="url(#paint90_linear_200_2)" stroke-width="8" stroke-linecap="round" stroke-linejoin="round"/>
<path d="M133.029 1254.58H1006.52C1027.84 1254.58 1045.12 1237.31 1045.12 1216.03V1168.19" stroke="url(#paint91_linear_200_2)" stroke-width="8" stroke-linecap="round" stroke-linejoin="round"/>
<path d="M523.454 1214.36H473.375V1164.3C473.353 1156.64 467.145 1150.44 459.477 1150.42H406.727C399.059 1150.44 392.847 1156.64 392.828 1164.3V1214.36H342.716C335.042 1214.36 328.82 1220.57 328.82 1228.23V1280.92C328.82 1288.59 335.036 1294.81 342.716 1294.83H523.454C527.144 1294.83 530.685 1293.36 533.291 1290.75C535.9 1288.15 537.359 1284.61 537.352 1280.92V1228.23C537.359 1224.55 535.896 1221.01 533.291 1218.41C530.681 1215.81 527.14 1214.34 523.454 1214.36Z" fill="url(#paint92_linear_200_2)"/>
<path d="M519.534 1214.35H509.111V1294.8H519.534V1214.35Z" fill="url(#paint93_linear_200_2)"/>
<path d="M362.309 1214.35H351.887V1294.8H362.309V1214.35Z" fill="url(#paint94_linear_200_2)"/>
<path d="M473.371 1184.54V1174.13H392.828V1184.54H473.371Z" fill="url(#paint95_linear_200_2)"/>
<path d="M433.104 1285.48C454.121 1285.48 471.156 1268.47 471.156 1247.48C471.156 1226.48 454.121 1209.47 433.104 1209.47C412.088 1209.47 395.053 1226.48 395.053 1247.48C395.053 1268.47 412.088 1285.48 433.104 1285.48Z" fill="url(#paint96_linear_200_2)"/>
<path d="M433.103 1274.33C447.955 1274.33 459.993 1262.31 459.993 1247.48C459.993 1232.64 447.955 1220.62 433.103 1220.62C418.251 1220.62 406.213 1232.64 406.213 1247.48C406.213 1262.31 418.251 1274.33 433.103 1274.33Z" fill="url(#paint97_linear_200_2)"/>
<path d="M509.191 1304.12L442.455 1237.47C437.39 1232.41 429.172 1232.41 424.103 1237.47C419.033 1242.53 419.033 1250.74 424.103 1255.8L490.835 1322.45C495.904 1327.51 504.122 1327.51 509.191 1322.45C514.257 1317.39 514.257 1309.18 509.191 1304.12Z" fill="url(#paint98_linear_200_2)"/>
<path d="M1399.36 511.134H984.034C952.202 511.134 926.396 536.91 926.396 568.706V1120.51C926.396 1152.31 952.202 1178.08 984.034 1178.08H1399.36C1431.19 1178.08 1457 1152.31 1457 1120.51V568.706C1457 536.91 1431.19 511.134 1399.36 511.134Z" fill="url(#paint99_linear_200_2)"/>
<path d="M1238.62 511.134H823.3C791.468 511.134 765.662 536.91 765.662 568.706V1120.51C765.662 1152.31 791.468 1178.08 823.3 1178.08H1238.62C1270.46 1178.08 1296.26 1152.31 1296.26 1120.51V568.706C1296.26 536.91 1270.46 511.134 1238.62 511.134Z" fill="#2E4B74"/>
<path d="M833.279 546.314H1223.45C1237.66 546.38 1249.87 556.402 1252.69 570.311C1255.48 576.993 1251.88 1107.24 1253.27 1114.09C1253.28 1121.48 1250.52 1128.6 1245.55 1134.07C1250.56 1156.17 842.447 1138.34 833.119 1143.71C820.546 1143.65 809.344 1135.76 805.068 1123.95C799.602 1113.09 805.327 587.434 803.3 575.934C803.529 559.546 816.867 546.365 833.279 546.314Z" fill="#0B2546"/>
<path d="M1210.65 609.472H846.143V717.837H1135.63C1134.86 680.248 1187.39 691.205 1210.55 689.79L1210.65 609.472Z" fill="#223C6A"/>
<path d="M846.143 609.472H961.938V717.87H846.143V609.472Z" fill="url(#paint100_linear_200_2)"/>
<path d="M878.984 627.785H928.907C935.577 627.803 940.982 633.204 941 639.864C938.813 649.213 947.274 695.413 933.539 698.786C933.248 700.617 881.077 699.365 878.857 699.718C872.179 699.681 866.778 694.274 866.764 687.607V639.864C866.771 636.643 868.067 633.557 870.359 631.286C872.652 629.019 875.76 627.76 878.984 627.785Z" fill="#DE6437" fill-opacity="0.5"/>
<path fill-rule="evenodd" clip-rule="evenodd" d="M983.879 699.652H1000.54V627.785H984.01L983.879 699.652ZM1028.91 627.785H1012.44V699.652H1028.98L1028.91 627.785ZM1040.91 627.785H1057.44V699.652H1040.91V627.785ZM1085.94 627.785H1069.41V699.652H1085.94V627.785ZM1097.94 627.785H1114.47V699.652H1097.94V627.785ZM1166.49 627.785H1147.18V647.062H1166.49V627.785ZM1174.59 627.785H1193.89L1194.05 647.062H1174.75L1174.59 627.785ZM1166.49 656.284H1147.18V675.557H1166.49V656.284ZM1174.59 656.284H1193.89L1194.05 675.557H1174.75L1174.59 656.284Z" fill="#6EA5CE"/>
<path d="M803.297 1023.17H1253.39V1114.02C1253.39 1130.45 1240.06 1143.77 1223.61 1143.77H833.277C816.827 1143.77 803.49 1130.45 803.49 1114.02V1023.17H803.297Z" fill="#091F36"/>
<path d="M846.143 1049.61H1210.55V1117.4H846.143V1049.61Z" fill="#223C6A"/>
<path d="M868.816 1065.32H879.013V1101.69H868.816V1065.32Z" fill="#6EA5CE"/>
<path d="M890.887 1065.32H901.113V1101.69H890.887V1065.32Z" fill="#6EA5CE"/>
<path d="M912.922 1065.32H923.152V1101.69H912.922V1065.32Z" fill="#6EA5CE"/>
<path d="M934.955 1065.32H945.185V1101.69H934.955V1065.32Z" fill="#6EA5CE"/>
<path d="M956.98 1065.32H967.21V1101.69H956.98V1065.32Z" fill="#6EA5CE"/>
<path d="M979.08 1065.32H989.31V1101.69H979.08V1065.32Z" fill="#6EA5CE"/>
<path d="M1001.11 1065.32H1011.34V1101.69H1001.11V1065.32Z" fill="#6EA5CE"/>
<path d="M1023.06 1065.32H1033.29V1101.69H1023.06V1065.32Z" fill="#6EA5CE"/>
<path d="M1045.22 1065.32H1055.45V1101.69H1045.22V1065.32Z" fill="#6EA5CE"/>
<path d="M1067.28 1065.32H1077.51V1101.69H1067.28V1065.32Z" fill="#6EA5CE"/>
<path d="M1089.32 1065.32H1099.55V1101.69H1089.32V1065.32Z" fill="#6EA5CE"/>
<path d="M1111.35 1065.32H1121.58V1101.69H1111.35V1065.32Z" fill="#6EA5CE"/>
<path d="M1133.45 1065.32H1143.68V1101.69H1133.45V1065.32Z" fill="#6EA5CE"/>
<path d="M1155.48 1065.32H1165.68V1101.69H1155.48V1065.32Z" fill="#6EA5CE"/>
<path d="M1177.45 1065.32H1187.68V1101.69H1177.45V1065.32Z" fill="#6EA5CE"/>
<path d="M1338.82 744.6C1347.31 746.332 1415.44 739.909 1420.08 749.451C1422.54 752.188 1423.9 755.729 1423.9 759.408C1423.9 760.856 1423.9 973.371 1423.9 974.656C1423.12 982.222 1416.75 987.979 1409.14 988.022H1338.82C1330.66 987.95 1324.07 981.363 1323.99 973.211V759.408C1324.03 751.245 1330.65 744.633 1338.82 744.6Z" fill="#0B2546"/>
<path fill-rule="evenodd" clip-rule="evenodd" d="M1343.39 785.432H1404.5V773.608H1343.39V785.432ZM1404.5 795.359H1343.39V807.15H1404.5V795.359ZM1343.39 817.045H1404.5V828.866H1343.39V817.045ZM1404.5 838.761H1343.39V850.584H1404.5V838.761ZM1343.39 860.479H1404.5V872.27H1343.39V860.479ZM1404.5 882.165H1343.39V893.989H1404.5V882.165ZM1343.39 903.884H1404.5V915.704H1343.39V903.884ZM1404.5 925.566H1343.39V937.39H1404.5V925.566ZM1343.39 947.285H1404.5V959.109H1343.39V947.285Z" fill="#6EA5CE"/>
<path d="M1210.65 744.6H846.143V853.026H1135.63C1134.86 815.404 1187.35 826.329 1210.55 824.917L1210.65 744.6Z" fill="#223C6A"/>
<path d="M846.143 744.6H961.938V853.026H846.143V744.6Z" fill="url(#paint101_linear_200_2)"/>
<path d="M878.984 762.847H928.907C935.577 762.861 940.982 768.262 941 774.925C938.813 784.274 947.274 830.474 933.539 833.847C933.248 835.678 881.077 834.426 878.857 834.779C872.179 834.743 866.778 829.335 866.764 822.668V774.925C866.771 771.704 868.067 768.615 870.359 766.347C872.652 764.08 875.76 762.821 878.984 762.847Z" fill="#DE6437" fill-opacity="0.5"/>
<path fill-rule="evenodd" clip-rule="evenodd" d="M1028.97 762.847H1012.44V834.779H1028.97V762.847ZM1040.97 762.847H1057.5V834.779H1040.97V762.847ZM1086 762.847H1069.47V834.779H1086V762.847ZM1098 762.847H1114.53V834.779H1098V762.847ZM1166.55 762.847H1147.25V782.124H1166.55V762.847ZM1174.65 762.847H1193.95L1194.11 782.124H1174.81L1174.65 762.847ZM983.814 834.779H1000.54V763.007H984.007L983.814 834.779ZM1166.55 791.374H1147.25V810.651H1166.55V791.374ZM1174.65 791.374H1193.95L1194.11 810.651H1174.81L1174.65 791.374Z" fill="#6EA5CE"/>
<path d="M1210.65 879.691H846.143V988.117H1135.63C1134.83 950.499 1187.39 961.42 1210.55 960.008L1210.65 879.691Z" fill="#223C6A"/>
<path d="M846.143 879.691H961.938V988.117H846.143V879.691Z" fill="url(#paint102_linear_200_2)"/>
<path d="M878.984 897.938H928.907C935.577 897.956 940.982 903.356 941 910.02C938.813 919.369 947.274 965.565 933.539 968.938C933.248 970.769 881.077 969.517 878.857 969.87C872.179 969.834 866.778 964.429 866.764 957.759V910.02C866.778 906.795 868.077 903.717 870.37 901.449C872.663 899.186 875.76 897.923 878.984 897.938Z" fill="#DE6437" fill-opacity="0.5"/>
<path fill-rule="evenodd" clip-rule="evenodd" d="M983.879 969.87H1000.54V897.937H984.01L983.879 969.87ZM1028.91 897.937H1012.44V969.87H1028.98L1028.91 897.937ZM1040.91 897.937H1057.44V969.87H1040.91V897.937ZM1085.94 897.937H1069.41V969.87H1085.94V897.937ZM1097.94 897.937H1114.47V969.87H1097.94V897.937ZM1166.49 897.937H1147.18V917.214H1166.49V897.937ZM1174.59 897.937H1193.89L1194.05 917.214H1174.75L1174.59 897.937ZM1166.49 926.436H1147.18V945.709H1166.49V926.436ZM1174.59 926.436H1193.89L1194.05 945.709H1174.75L1174.59 926.436Z" fill="#6EA5CE"/>
<path d="M1430.72 356.349H952.675C938.162 356.349 926.396 368.1 926.396 382.596V468.792C926.396 483.288 938.162 495.039 952.675 495.039H1430.72C1445.23 495.039 1457 483.288 1457 468.792V382.596C1457 368.1 1445.23 356.349 1430.72 356.349Z" fill="url(#paint103_linear_200_2)"/>
<path d="M1269.99 356.349H791.941C777.428 356.349 765.662 368.1 765.662 382.596V468.792C765.662 483.288 777.428 495.039 791.941 495.039H1269.99C1284.5 495.039 1296.26 483.288 1296.26 468.792V382.596C1296.26 368.1 1284.5 356.349 1269.99 356.349Z" fill="#2E4B74"/>
<path d="M1256.16 379.415H805.805C799.444 379.415 794.291 384.565 794.291 390.916V460.503C794.291 466.855 799.444 472.004 805.805 472.004H1256.16C1262.52 472.004 1267.67 466.855 1267.67 460.503V390.916C1267.67 384.565 1262.52 379.415 1256.16 379.415Z" fill="#0B2546"/>
<path d="M1235.86 399.719H816.902V451.668H1199.96C1199.61 433.645 1224.76 438.818 1235.86 438.207V399.719Z" fill="#223C6A"/>
<path d="M816.902 399.719H872.418V451.668H816.902V399.719Z" fill="url(#paint104_linear_200_2)"/>
<path d="M832.698 408.49H856.597C859.799 408.49 862.401 411.074 862.42 414.272C861.357 418.738 865.411 440.873 858.817 442.48C858.817 443.379 833.695 442.769 832.698 442.929C829.507 442.912 826.923 440.333 826.908 437.147V414.272C826.923 411.086 829.507 408.507 832.698 408.49Z" fill="#DE6437" fill-opacity="0.5"/>
<path fill-rule="evenodd" clip-rule="evenodd" d="M915.102 442.929H923.046V408.49H915.102V442.929ZM963.124 408.49H955.213V442.929H963.124V408.49ZM995.291 408.49H1003.24V442.929H995.291V408.49ZM1043.31 408.49H1035.4V442.929H1043.31V408.49ZM1075.48 408.49H1083.39V442.929H1075.48V408.49ZM1214.76 408.49H1205.52V417.678H1214.76V408.49ZM1218.62 408.49H1227.85V417.678H1218.62V408.49ZM1214.76 422.111H1205.52V431.332H1214.76V422.111ZM1218.62 422.111H1227.85V431.332H1218.62V422.111Z" fill="#6EA5CE"/>
<path d="M455.683 915.257C671.684 915.257 846.788 740.364 846.788 524.628C846.788 308.89 671.684 134 455.683 134C239.685 134 64.582 308.89 64.582 524.628C64.582 740.364 239.685 915.257 455.683 915.257Z" fill="url(#paint105_linear_200_2)"/>
<path d="M433.101 915.257C649.103 915.257 824.206 740.364 824.206 524.628C824.206 308.89 649.103 134 433.101 134C217.103 134 42 308.89 42 524.628C42 740.364 217.103 915.257 433.101 915.257Z" fill="url(#paint106_linear_200_2)"/>
<path d="M433.107 848.754C612.334 848.754 757.629 703.637 757.629 524.628C757.629 345.618 612.334 200.502 433.107 200.502C253.88 200.502 108.588 345.618 108.588 524.628C108.588 703.637 253.88 848.754 433.107 848.754Z" fill="url(#paint107_linear_200_2)"/>
<path d="M433.104 765.351C461.864 765.351 485.181 742.067 485.181 713.339C485.181 684.615 461.864 661.328 433.104 661.328C404.343 661.328 381.027 684.615 381.027 713.339C381.027 742.067 404.343 765.351 433.104 765.351Z" fill="#69C282"/>
<path d="M442.787 674.465L410.107 715.202H431.983L418.794 752.18L452.02 706.559H431.983L442.787 674.465Z" fill="white"/>
<path d="M433.102 264.241C289.122 264.241 172.4 380.82 172.4 524.628H693.774C693.818 455.561 666.367 389.311 617.475 340.471C568.582 291.631 502.254 264.207 433.102 264.241Z" fill="url(#paint108_linear_200_2)"/>
<path d="M693.768 524.628C693.859 455.559 666.391 389.3 617.44 340.51L433.1 524.628H693.768Z" fill="url(#paint109_linear_200_2)"/>
<path d="M465.336 524.628H401.002L429.599 246.797C429.828 244.963 431.386 243.586 433.234 243.584C435.076 243.588 436.622 244.968 436.837 246.797L465.336 524.628Z" fill="white"/>
<path opacity="0.2" d="M433.102 610.503C480.59 610.503 519.082 572.054 519.082 524.628C519.082 477.2 480.59 438.753 433.102 438.753C385.619 438.753 347.125 477.2 347.125 524.628C347.125 572.054 385.619 610.503 433.102 610.503Z" fill="url(#paint110_linear_200_2)"/>
<path d="M433.106 590.04C469.276 590.04 498.597 560.751 498.597 524.629C498.597 488.503 469.276 459.218 433.106 459.218C396.936 459.218 367.617 488.503 367.617 524.629C367.617 560.751 396.936 590.04 433.106 590.04Z" fill="white"/>
<path d="M126.402 524.628C126.406 349.086 266.324 205.45 442.013 200.631C439.051 200.631 436.06 200.631 433.101 200.631C316.398 199.47 208.059 260.99 149.369 361.747C90.6791 462.504 90.6791 586.975 149.369 687.734C208.059 788.489 316.398 850.009 433.101 848.848C436.06 848.848 439.051 848.848 442.013 848.848C266.236 844.026 126.284 700.256 126.402 524.628Z" fill="url(#paint111_linear_200_2)"/>
<path d="M439.119 150.513C439.119 147.195 436.426 144.505 433.103 144.505C429.781 144.505 427.088 147.195 427.088 150.513V185.884C427.088 189.202 429.781 191.892 433.103 191.892C436.426 191.892 439.119 189.202 439.119 185.884V150.513Z" fill="white"/>
<path d="M439.119 863.34C439.119 860.021 436.426 857.331 433.103 857.331C429.781 857.331 427.088 860.021 427.088 863.34V898.709C427.088 902.028 429.781 904.717 433.103 904.717C436.426 904.717 439.119 902.028 439.119 898.709V863.34Z" fill="white"/>
<path d="M807.673 530.637C810.995 530.637 813.688 527.947 813.688 524.628C813.688 521.309 810.995 518.62 807.673 518.62H772.26C768.937 518.62 766.244 521.309 766.244 524.628C766.244 527.947 768.937 530.637 772.26 530.637H807.673Z" fill="white"/>
<path d="M93.9762 530.637C97.2985 530.637 99.9911 527.947 99.9911 524.628C99.9911 521.309 97.2985 518.62 93.9762 518.62H58.5619C55.2398 518.62 52.5469 521.309 52.5469 524.628C52.5469 527.947 55.2398 530.637 58.5619 530.637H93.9762Z" fill="white"/>
<path d="M1253.91 161.243H890.824C879.15 161.243 869.691 170.693 869.691 182.35V282.425C869.691 294.082 879.15 303.532 890.824 303.532H1253.91C1265.58 303.532 1275.04 294.082 1275.04 282.425V182.35C1275.04 170.693 1265.58 161.243 1253.91 161.243Z" fill="url(#paint112_linear_200_2)"/>
<path d="M893.649 177.371H986.481H987.347L988.217 177.596L989.083 177.917C989.363 178.019 989.636 178.148 989.887 178.303L990.663 178.753L991.401 179.299C991.842 179.695 992.26 180.113 992.657 180.552C992.85 180.809 993.043 181.034 993.203 181.291C993.363 181.548 993.523 181.805 993.654 182.062C993.814 182.313 993.942 182.582 994.04 182.865C994.04 183.154 994.262 183.443 994.36 183.7C994.444 183.996 994.509 184.296 994.553 184.6C994.586 184.888 994.586 185.179 994.553 185.467C994.553 185.788 994.553 186.078 994.553 186.366V278.345C994.567 278.645 994.567 278.945 994.553 279.245C994.582 279.544 994.582 279.845 994.553 280.144C994.506 280.437 994.44 280.726 994.36 281.012C994.265 281.295 994.16 281.574 994.04 281.847C993.942 282.13 993.814 282.399 993.654 282.65C993.53 282.922 993.378 283.18 993.203 283.421C993.039 283.68 992.853 283.927 992.657 284.16L992.045 284.835L991.401 285.413L990.663 285.959L989.887 286.409C989.636 286.564 989.363 286.693 989.083 286.795L988.217 287.116L987.347 287.34H986.481H892.75H891.847L890.981 287.116L890.144 286.795C889.86 286.699 889.591 286.569 889.34 286.409C889.06 286.279 888.79 286.128 888.536 285.959L887.826 285.413L887.153 284.835L886.541 284.16L886.025 283.421L885.544 282.65L885.159 281.847L884.867 281.012C884.776 280.727 884.704 280.437 884.642 280.144C884.642 279.823 884.642 279.534 884.642 279.245C884.627 278.945 884.627 278.645 884.642 278.345V186.527C884.627 186.227 884.627 185.928 884.642 185.628C884.627 185.339 884.627 185.049 884.642 184.76C884.696 184.456 884.776 184.156 884.867 183.861L885.159 183.025L885.544 182.222L886.025 181.451L886.541 180.712L887.153 180.07L887.826 179.459L888.536 178.913C888.79 178.744 889.06 178.594 889.34 178.464C889.591 178.303 889.86 178.174 890.144 178.078L890.981 177.757L891.847 177.532H892.75L893.649 177.371Z" fill="url(#paint113_linear_200_2)"/>
<path d="M908.863 211.553V253.318C908.863 254.073 909.165 254.797 909.704 255.328C910.239 255.859 910.97 256.154 911.727 256.145H960.202C961.763 256.145 963.029 254.879 963.029 253.318V218.686C963.029 217.119 961.77 215.844 960.202 215.826H935.306C934.392 215.861 933.533 215.408 933.053 214.637L929.836 209.915C929.308 209.192 928.479 208.754 927.583 208.726H911.502C910.021 208.843 908.878 210.071 908.863 211.553Z" fill="url(#paint114_linear_200_2)"/>
<path d="M1024.91 177.371H1252.94H1253.81L1254.71 177.596L1255.54 177.917C1255.83 178.013 1256.09 178.143 1256.35 178.303L1257.12 178.753L1257.86 179.299C1258.3 179.695 1258.72 180.113 1259.11 180.552C1259.31 180.809 1259.5 181.034 1259.66 181.291C1259.82 181.548 1259.98 181.805 1260.11 182.062C1260.27 182.313 1260.4 182.582 1260.5 182.865C1260.5 183.154 1260.72 183.443 1260.82 183.7C1260.91 183.957 1260.98 184.278 1261.04 184.6C1261.11 184.921 1261.04 185.178 1261.04 185.467C1261.06 185.767 1261.06 186.067 1261.04 186.366V278.345C1261.06 278.645 1261.06 278.945 1261.04 279.245C1261.04 279.534 1261.04 279.823 1261.04 280.144C1261.04 280.466 1260.88 280.723 1260.82 281.012C1260.72 281.295 1260.62 281.574 1260.5 281.847C1260.4 282.13 1260.27 282.399 1260.11 282.65C1259.99 282.922 1259.84 283.18 1259.66 283.421C1259.5 283.68 1259.31 283.927 1259.11 284.16L1258.5 284.835L1257.86 285.413L1257.12 285.959L1256.35 286.409C1256.09 286.569 1255.83 286.699 1255.54 286.795L1254.71 287.116L1253.81 287.34H1252.94H1024.02H1023.15L1022.28 287.116L1021.41 286.795C1021.13 286.693 1020.86 286.564 1020.61 286.409L1019.83 285.959L1019.09 285.413L1018.45 284.835L1017.84 284.16C1017.64 283.927 1017.45 283.68 1017.29 283.421C1017.12 283.18 1016.97 282.922 1016.84 282.65C1016.73 282.371 1016.65 282.08 1016.62 281.783C1016.49 281.51 1016.39 281.231 1016.29 280.948C1016.21 280.662 1016.15 280.373 1016.1 280.08C1016.1 279.759 1016.1 279.47 1015.94 279.18C1015.78 278.891 1015.94 278.57 1015.94 278.281V186.527C1015.94 186.238 1015.94 185.949 1015.94 185.628C1015.98 185.336 1016.03 185.046 1016.1 184.76C1016.15 184.457 1016.21 184.156 1016.29 183.861C1016.29 183.604 1016.49 183.315 1016.62 183.025C1016.71 182.743 1016.84 182.474 1017 182.222C1017 181.965 1017.29 181.708 1017.45 181.451C1017.61 181.194 1017.81 180.97 1018 180.712C1018.39 180.273 1018.81 179.855 1019.25 179.459L1019.83 178.977L1020.61 178.528C1020.86 178.373 1021.13 178.244 1021.41 178.142L1022.28 177.821L1023.15 177.596H1024.02L1024.91 177.371Z" fill="url(#paint115_linear_200_2)"/>
<path d="M1039.39 200.791H1238.04H1238.46H1238.88L1239.27 200.952L1239.62 201.112L1240.01 201.337L1240.33 201.562L1240.65 201.851L1240.91 202.173L1241.16 202.494L1241.39 202.847L1241.55 203.233C1241.56 203.361 1241.56 203.49 1241.55 203.618C1241.56 203.757 1241.56 203.897 1241.55 204.036C1241.54 204.175 1241.54 204.315 1241.55 204.454V205.803C1241.53 205.931 1241.53 206.06 1241.55 206.189C1241.57 206.327 1241.57 206.467 1241.55 206.606C1241.56 206.734 1241.56 206.863 1241.55 206.992L1241.39 207.377L1241.16 207.73C1241.1 207.851 1241.01 207.959 1240.91 208.052L1240.65 208.373L1240.33 208.662L1240.01 208.887L1239.62 209.112L1239.27 209.305H1238.88H1238.46H1238.04H1039.13H1038.71H1038.33H1037.91L1037.56 209.112L1037.17 208.887L1036.85 208.662L1036.56 208.373C1036.45 208.282 1036.35 208.173 1036.27 208.052C1036.14 208.017 1036.02 207.963 1035.92 207.891L1035.69 207.538L1035.53 207.152C1035.51 207.024 1035.51 206.895 1035.53 206.767C1035.51 206.628 1035.51 206.488 1035.53 206.349C1035.54 206.221 1035.54 206.091 1035.53 205.964V204.678C1035.54 204.54 1035.54 204.4 1035.53 204.261C1035.51 204.122 1035.51 203.982 1035.53 203.843C1035.51 203.715 1035.51 203.586 1035.53 203.458L1035.69 203.072L1035.92 202.719L1036.17 202.398C1036.25 202.276 1036.35 202.168 1036.46 202.076L1036.75 201.787L1037.07 201.562L1037.46 201.337L1037.81 201.177L1038.23 201.016H1038.62H1039.03L1039.39 200.791Z" fill="white" fill-opacity="0.3"/>
<path d="M1038.78 218.879H1186.74H1187.1H1187.45H1187.77L1188.06 219.039L1188.35 219.264L1188.61 219.489L1188.87 219.779L1189.06 220.067L1189.25 220.357V220.678C1189.25 220.678 1189.25 220.903 1189.25 221.031C1189.27 221.138 1189.27 221.246 1189.25 221.352C1189.27 221.47 1189.27 221.588 1189.25 221.706C1189.25 221.706 1189.25 221.963 1189.25 222.092V223.794C1189.25 223.794 1189.25 224.019 1189.25 224.148C1189.25 224.383 1189.25 224.619 1189.25 224.854V225.176V225.497L1189.06 225.818L1188.87 226.107L1188.61 226.364C1188.53 226.458 1188.44 226.544 1188.35 226.621L1188.06 226.814L1187.77 227.007L1187.45 227.168H1187.1H1186.74H1186.39H1038.42H1038.07H1037.72H1037.4L1037.07 227.007L1036.75 226.814L1036.46 226.621L1036.21 226.364L1035.98 226.107L1035.76 225.818L1035.56 225.497L1035.4 225.176V224.854V224.501C1035.4 224.501 1035.4 224.276 1035.4 224.148V221.706C1035.4 221.706 1035.4 221.481 1035.4 221.352V221.031V220.678C1035.4 220.678 1035.4 220.453 1035.56 220.357L1035.76 220.067L1035.98 219.779L1036.21 219.489L1036.46 219.264L1036.75 219.039C1036.85 218.967 1036.96 218.913 1037.07 218.879H1037.4H1037.72H1038.07H1038.78Z" fill="white" fill-opacity="0.3"/>
<path d="M1038.78 255.117H1186.36H1186.71H1187.07H1187.42H1187.74L1188.03 255.31L1188.32 255.503C1188.49 255.674 1188.66 255.845 1188.84 256.017L1189.03 256.306L1189.22 256.595V256.948C1189.23 257.055 1189.23 257.162 1189.22 257.27C1189.24 257.387 1189.24 257.506 1189.22 257.623C1189.24 257.74 1189.24 257.859 1189.22 257.977C1189.22 257.977 1189.22 258.201 1189.22 258.33V260.033C1189.22 260.033 1189.22 260.29 1189.22 260.386C1189.22 260.621 1189.22 260.857 1189.22 261.093C1189.22 261.093 1189.22 261.318 1189.22 261.446V261.767L1189.03 262.056L1188.84 262.345C1188.76 262.439 1188.67 262.525 1188.58 262.603C1188.51 262.704 1188.42 262.791 1188.32 262.86L1188.03 263.084H1187.74H1187.42H1187.07H1186.71H1186.36H1038.39H1038.04H1037.69H1037.37H1037.04H1036.72L1036.43 262.86C1036.34 262.782 1036.25 262.696 1036.17 262.603C1036.08 262.532 1036.01 262.445 1035.95 262.345L1035.92 262.507L1035.73 262.217C1035.68 262.107 1035.62 262 1035.57 261.896V261.543V261.189C1035.57 261.189 1035.57 260.964 1035.57 260.836V258.426C1035.57 258.426 1035.57 258.169 1035.57 258.073V257.72V257.398L1035.73 257.045L1035.92 256.756L1036.15 256.467C1036.2 256.367 1036.28 256.28 1036.37 256.21L1036.63 255.953L1036.92 255.76L1037.24 255.567H1037.56H1037.88H1038.23H1038.59L1038.78 255.117Z" fill="#5A8AB7" fill-opacity="0.3"/>
</g>
<defs>
<filter id="filter0_i_200_2" x="42" y="134" width="1415" height="1235.32" filterUnits="userSpaceOnUse" color-interpolation-filters="sRGB">
<feFlood flood-opacity="0" result="BackgroundImageFix"/>
<feBlend mode="normal" in="SourceGraphic" in2="BackgroundImageFix" result="shape"/>
<feColorMatrix in="SourceAlpha" type="matrix" values="0 0 0 0 0 0 0 0 0 0 0 0 0 0 0 0 0 0 127 0" result="hardAlpha"/>
<feOffset dy="4"/>
<feGaussianBlur stdDeviation="2"/>
<feComposite in2="hardAlpha" operator="arithmetic" k2="-1" k3="1"/>
<feColorMatrix type="matrix" values="0 0 0 0 0 0 0 0 0 0 0 0 0 0 0 0 0 0 0.25 0"/>
<feBlend mode="normal" in2="shape" result="effect1_innerShadow_200_2"/>
</filter>
<linearGradient id="paint0_linear_200_2" x1="677.942" y1="1342.51" x2="677.942" y2="1371.36" gradientUnits="userSpaceOnUse">
<stop stop-color="#0B2546"/>
<stop offset="0.21" stop-color="#112A4E"/>
<stop offset="1" stop-color="#223C6A"/>
</linearGradient>
<linearGradient id="paint1_linear_200_2" x1="117.813" y1="718.583" x2="117.813" y2="689.735" gradientUnits="userSpaceOnUse">
<stop stop-color="#0B2546"/>
<stop offset="0.21" stop-color="#112A4E"/>
<stop offset="1" stop-color="#223C6A"/>
</linearGradient>
<linearGradient id="paint2_linear_200_2" x1="175.455" y1="718.583" x2="175.455" y2="689.735" gradientUnits="userSpaceOnUse">
<stop stop-color="#0B2546"/>
<stop offset="0.21" stop-color="#112A4E"/>
<stop offset="1" stop-color="#223C6A"/>
</linearGradient>
<linearGradient id="paint3_linear_200_2" x1="233.066" y1="718.583" x2="233.066" y2="689.735" gradientUnits="userSpaceOnUse">
<stop stop-color="#0B2546"/>
<stop offset="0.21" stop-color="#112A4E"/>
<stop offset="1" stop-color="#223C6A"/>
</linearGradient>
<linearGradient id="paint4_linear_200_2" x1="290.675" y1="718.583" x2="290.675" y2="689.735" gradientUnits="userSpaceOnUse">
<stop stop-color="#0B2546"/>
<stop offset="0.21" stop-color="#112A4E"/>
<stop offset="1" stop-color="#223C6A"/>
</linearGradient>
<linearGradient id="paint5_linear_200_2" x1="348.309" y1="718.583" x2="348.309" y2="689.735" gradientUnits="userSpaceOnUse">
<stop stop-color="#0B2546"/>
<stop offset="0.21" stop-color="#112A4E"/>
<stop offset="1" stop-color="#223C6A"/>
</linearGradient>
<linearGradient id="paint6_linear_200_2" x1="405.919" y1="718.583" x2="405.919" y2="689.735" gradientUnits="userSpaceOnUse">
<stop stop-color="#0B2546"/>
<stop offset="0.21" stop-color="#112A4E"/>
<stop offset="1" stop-color="#223C6A"/>
</linearGradient>
<linearGradient id="paint7_linear_200_2" x1="463.535" y1="718.583" x2="463.535" y2="689.735" gradientUnits="userSpaceOnUse">
<stop stop-color="#0B2546"/>
<stop offset="0.21" stop-color="#112A4E"/>
<stop offset="1" stop-color="#223C6A"/>
</linearGradient>
<linearGradient id="paint8_linear_200_2" x1="521.14" y1="718.583" x2="521.14" y2="689.735" gradientUnits="userSpaceOnUse">
<stop stop-color="#0B2546"/>
<stop offset="0.21" stop-color="#112A4E"/>
<stop offset="1" stop-color="#223C6A"/>
</linearGradient>
<linearGradient id="paint9_linear_200_2" x1="578.781" y1="718.583" x2="578.781" y2="689.735" gradientUnits="userSpaceOnUse">
<stop stop-color="#0B2546"/>
<stop offset="0.21" stop-color="#112A4E"/>
<stop offset="1" stop-color="#223C6A"/>
</linearGradient>
<linearGradient id="paint10_linear_200_2" x1="60.2018" y1="783.855" x2="60.2018" y2="755.003" gradientUnits="userSpaceOnUse">
<stop stop-color="#0B2546"/>
<stop offset="0.21" stop-color="#112A4E"/>
<stop offset="1" stop-color="#223C6A"/>
</linearGradient>
<linearGradient id="paint11_linear_200_2" x1="117.813" y1="783.855" x2="117.813" y2="755.003" gradientUnits="userSpaceOnUse">
<stop stop-color="#0B2546"/>
<stop offset="0.21" stop-color="#112A4E"/>
<stop offset="1" stop-color="#223C6A"/>
</linearGradient>
<linearGradient id="paint12_linear_200_2" x1="175.455" y1="783.855" x2="175.455" y2="755.003" gradientUnits="userSpaceOnUse">
<stop stop-color="#0B2546"/>
<stop offset="0.21" stop-color="#112A4E"/>
<stop offset="1" stop-color="#223C6A"/>
</linearGradient>
<linearGradient id="paint13_linear_200_2" x1="233.066" y1="783.855" x2="233.066" y2="755.003" gradientUnits="userSpaceOnUse">
<stop stop-color="#0B2546"/>
<stop offset="0.21" stop-color="#112A4E"/>
<stop offset="1" stop-color="#223C6A"/>
</linearGradient>
<linearGradient id="paint14_linear_200_2" x1="290.675" y1="783.855" x2="290.675" y2="755.003" gradientUnits="userSpaceOnUse">
<stop stop-color="#0B2546"/>
<stop offset="0.21" stop-color="#112A4E"/>
<stop offset="1" stop-color="#223C6A"/>
</linearGradient>
<linearGradient id="paint15_linear_200_2" x1="348.309" y1="783.855" x2="348.309" y2="755.003" gradientUnits="userSpaceOnUse">
<stop stop-color="#0B2546"/>
<stop offset="0.21" stop-color="#112A4E"/>
<stop offset="1" stop-color="#223C6A"/>
</linearGradient>
<linearGradient id="paint16_linear_200_2" x1="405.919" y1="783.855" x2="405.919" y2="755.003" gradientUnits="userSpaceOnUse">
<stop stop-color="#0B2546"/>
<stop offset="0.21" stop-color="#112A4E"/>
<stop offset="1" stop-color="#223C6A"/>
</linearGradient>
<linearGradient id="paint17_linear_200_2" x1="463.535" y1="783.855" x2="463.535" y2="755.003" gradientUnits="userSpaceOnUse">
<stop stop-color="#0B2546"/>
<stop offset="0.21" stop-color="#112A4E"/>
<stop offset="1" stop-color="#223C6A"/>
</linearGradient>
<linearGradient id="paint18_linear_200_2" x1="521.14" y1="783.855" x2="521.14" y2="755.003" gradientUnits="userSpaceOnUse">
<stop stop-color="#0B2546"/>
<stop offset="0.21" stop-color="#112A4E"/>
<stop offset="1" stop-color="#223C6A"/>
</linearGradient>
<linearGradient id="paint19_linear_200_2" x1="578.781" y1="783.855" x2="578.781" y2="755.003" gradientUnits="userSpaceOnUse">
<stop stop-color="#0B2546"/>
<stop offset="0.21" stop-color="#112A4E"/>
<stop offset="1" stop-color="#223C6A"/>
</linearGradient>
<linearGradient id="paint20_linear_200_2" x1="60.2018" y1="849.139" x2="60.2018" y2="820.288" gradientUnits="userSpaceOnUse">
<stop stop-color="#0B2546"/>
<stop offset="0.21" stop-color="#112A4E"/>
<stop offset="1" stop-color="#223C6A"/>
</linearGradient>
<linearGradient id="paint21_linear_200_2" x1="117.813" y1="849.139" x2="117.813" y2="820.288" gradientUnits="userSpaceOnUse">
<stop stop-color="#0B2546"/>
<stop offset="0.21" stop-color="#112A4E"/>
<stop offset="1" stop-color="#223C6A"/>
</linearGradient>
<linearGradient id="paint22_linear_200_2" x1="175.455" y1="849.139" x2="175.455" y2="820.288" gradientUnits="userSpaceOnUse">
<stop stop-color="#0B2546"/>
<stop offset="0.21" stop-color="#112A4E"/>
<stop offset="1" stop-color="#223C6A"/>
</linearGradient>
<linearGradient id="paint23_linear_200_2" x1="233.066" y1="849.139" x2="233.066" y2="820.288" gradientUnits="userSpaceOnUse">
<stop stop-color="#0B2546"/>
<stop offset="0.21" stop-color="#112A4E"/>
<stop offset="1" stop-color="#223C6A"/>
</linearGradient>
<linearGradient id="paint24_linear_200_2" x1="290.675" y1="849.139" x2="290.675" y2="820.288" gradientUnits="userSpaceOnUse">
<stop stop-color="#0B2546"/>
<stop offset="0.21" stop-color="#112A4E"/>
<stop offset="1" stop-color="#223C6A"/>
</linearGradient>
<linearGradient id="paint25_linear_200_2" x1="348.309" y1="849.139" x2="348.309" y2="820.288" gradientUnits="userSpaceOnUse">
<stop stop-color="#0B2546"/>
<stop offset="0.21" stop-color="#112A4E"/>
<stop offset="1" stop-color="#223C6A"/>
</linearGradient>
<linearGradient id="paint26_linear_200_2" x1="405.919" y1="849.139" x2="405.919" y2="820.288" gradientUnits="userSpaceOnUse">
<stop stop-color="#0B2546"/>
<stop offset="0.21" stop-color="#112A4E"/>
<stop offset="1" stop-color="#223C6A"/>
</linearGradient>
<linearGradient id="paint27_linear_200_2" x1="463.535" y1="849.139" x2="463.535" y2="820.288" gradientUnits="userSpaceOnUse">
<stop stop-color="#0B2546"/>
<stop offset="0.21" stop-color="#112A4E"/>
<stop offset="1" stop-color="#223C6A"/>
</linearGradient>
<linearGradient id="paint28_linear_200_2" x1="521.14" y1="849.139" x2="521.14" y2="820.288" gradientUnits="userSpaceOnUse">
<stop stop-color="#0B2546"/>
<stop offset="0.21" stop-color="#112A4E"/>
<stop offset="1" stop-color="#223C6A"/>
</linearGradient>
<linearGradient id="paint29_linear_200_2" x1="578.781" y1="849.139" x2="578.781" y2="820.288" gradientUnits="userSpaceOnUse">
<stop stop-color="#0B2546"/>
<stop offset="0.21" stop-color="#112A4E"/>
<stop offset="1" stop-color="#223C6A"/>
</linearGradient>
<linearGradient id="paint30_linear_200_2" x1="60.1859" y1="914.388" x2="60.1859" y2="885.569" gradientUnits="userSpaceOnUse">
<stop stop-color="#0B2546"/>
<stop offset="0.21" stop-color="#112A4E"/>
<stop offset="1" stop-color="#223C6A"/>
</linearGradient>
<linearGradient id="paint31_linear_200_2" x1="117.797" y1="914.388" x2="117.797" y2="885.569" gradientUnits="userSpaceOnUse">
<stop stop-color="#0B2546"/>
<stop offset="0.21" stop-color="#112A4E"/>
<stop offset="1" stop-color="#223C6A"/>
</linearGradient>
<linearGradient id="paint32_linear_200_2" x1="175.439" y1="914.388" x2="175.439" y2="885.569" gradientUnits="userSpaceOnUse">
<stop stop-color="#0B2546"/>
<stop offset="0.21" stop-color="#112A4E"/>
<stop offset="1" stop-color="#223C6A"/>
</linearGradient>
<linearGradient id="paint33_linear_200_2" x1="233.05" y1="914.388" x2="233.05" y2="885.569" gradientUnits="userSpaceOnUse">
<stop stop-color="#0B2546"/>
<stop offset="0.21" stop-color="#112A4E"/>
<stop offset="1" stop-color="#223C6A"/>
</linearGradient>
<linearGradient id="paint34_linear_200_2" x1="290.659" y1="914.388" x2="290.659" y2="885.569" gradientUnits="userSpaceOnUse">
<stop stop-color="#0B2546"/>
<stop offset="0.21" stop-color="#112A4E"/>
<stop offset="1" stop-color="#223C6A"/>
</linearGradient>
<linearGradient id="paint35_linear_200_2" x1="348.293" y1="914.388" x2="348.293" y2="885.569" gradientUnits="userSpaceOnUse">
<stop stop-color="#0B2546"/>
<stop offset="0.21" stop-color="#112A4E"/>
<stop offset="1" stop-color="#223C6A"/>
</linearGradient>
<linearGradient id="paint36_linear_200_2" x1="405.904" y1="914.388" x2="405.904" y2="885.569" gradientUnits="userSpaceOnUse">
<stop stop-color="#0B2546"/>
<stop offset="0.21" stop-color="#112A4E"/>
<stop offset="1" stop-color="#223C6A"/>
</linearGradient>
<linearGradient id="paint37_linear_200_2" x1="463.517" y1="914.388" x2="463.517" y2="885.569" gradientUnits="userSpaceOnUse">
<stop stop-color="#0B2546"/>
<stop offset="0.21" stop-color="#112A4E"/>
<stop offset="1" stop-color="#223C6A"/>
</linearGradient>
<linearGradient id="paint38_linear_200_2" x1="521.125" y1="914.388" x2="521.125" y2="885.569" gradientUnits="userSpaceOnUse">
<stop stop-color="#0B2546"/>
<stop offset="0.21" stop-color="#112A4E"/>
<stop offset="1" stop-color="#223C6A"/>
</linearGradient>
<linearGradient id="paint39_linear_200_2" x1="578.766" y1="914.388" x2="578.766" y2="885.569" gradientUnits="userSpaceOnUse">
<stop stop-color="#0B2546"/>
<stop offset="0.21" stop-color="#112A4E"/>
<stop offset="1" stop-color="#223C6A"/>
</linearGradient>
<linearGradient id="paint40_linear_200_2" x1="60.1858" y1="979.667" x2="60.1858" y2="950.852" gradientUnits="userSpaceOnUse">
<stop stop-color="#0B2546"/>
<stop offset="0.21" stop-color="#112A4E"/>
<stop offset="1" stop-color="#223C6A"/>
</linearGradient>
<linearGradient id="paint41_linear_200_2" x1="117.796" y1="979.667" x2="117.796" y2="950.852" gradientUnits="userSpaceOnUse">
<stop stop-color="#0B2546"/>
<stop offset="0.21" stop-color="#112A4E"/>
<stop offset="1" stop-color="#223C6A"/>
</linearGradient>
<linearGradient id="paint42_linear_200_2" x1="175.439" y1="979.667" x2="175.439" y2="950.852" gradientUnits="userSpaceOnUse">
<stop stop-color="#0B2546"/>
<stop offset="0.21" stop-color="#112A4E"/>
<stop offset="1" stop-color="#223C6A"/>
</linearGradient>
<linearGradient id="paint43_linear_200_2" x1="233.049" y1="979.667" x2="233.049" y2="950.852" gradientUnits="userSpaceOnUse">
<stop stop-color="#0B2546"/>
<stop offset="0.21" stop-color="#112A4E"/>
<stop offset="1" stop-color="#223C6A"/>
</linearGradient>
<linearGradient id="paint44_linear_200_2" x1="290.659" y1="979.667" x2="290.659" y2="950.852" gradientUnits="userSpaceOnUse">
<stop stop-color="#0B2546"/>
<stop offset="0.21" stop-color="#112A4E"/>
<stop offset="1" stop-color="#223C6A"/>
</linearGradient>
<linearGradient id="paint45_linear_200_2" x1="348.293" y1="979.667" x2="348.293" y2="950.852" gradientUnits="userSpaceOnUse">
<stop stop-color="#0B2546"/>
<stop offset="0.21" stop-color="#112A4E"/>
<stop offset="1" stop-color="#223C6A"/>
</linearGradient>
<linearGradient id="paint46_linear_200_2" x1="405.904" y1="979.667" x2="405.904" y2="950.852" gradientUnits="userSpaceOnUse">
<stop stop-color="#0B2546"/>
<stop offset="0.21" stop-color="#112A4E"/>
<stop offset="1" stop-color="#223C6A"/>
</linearGradient>
<linearGradient id="paint47_linear_200_2" x1="463.517" y1="979.667" x2="463.517" y2="950.852" gradientUnits="userSpaceOnUse">
<stop stop-color="#0B2546"/>
<stop offset="0.21" stop-color="#112A4E"/>
<stop offset="1" stop-color="#223C6A"/>
</linearGradient>
<linearGradient id="paint48_linear_200_2" x1="521.125" y1="979.667" x2="521.125" y2="950.852" gradientUnits="userSpaceOnUse">
<stop stop-color="#0B2546"/>
<stop offset="0.21" stop-color="#112A4E"/>
<stop offset="1" stop-color="#223C6A"/>
</linearGradient>
<linearGradient id="paint49_linear_200_2" x1="578.766" y1="979.667" x2="578.766" y2="950.852" gradientUnits="userSpaceOnUse">
<stop stop-color="#0B2546"/>
<stop offset="0.21" stop-color="#112A4E"/>
<stop offset="1" stop-color="#223C6A"/>
</linearGradient>
<linearGradient id="paint50_linear_200_2" x1="60.2018" y1="1044.95" x2="60.2018" y2="1016.1" gradientUnits="userSpaceOnUse">
<stop stop-color="#0B2546"/>
<stop offset="0.21" stop-color="#112A4E"/>
<stop offset="1" stop-color="#223C6A"/>
</linearGradient>
<linearGradient id="paint51_linear_200_2" x1="117.813" y1="1044.95" x2="117.813" y2="1016.1" gradientUnits="userSpaceOnUse">
<stop stop-color="#0B2546"/>
<stop offset="0.21" stop-color="#112A4E"/>
<stop offset="1" stop-color="#223C6A"/>
</linearGradient>
<linearGradient id="paint52_linear_200_2" x1="175.455" y1="1044.95" x2="175.455" y2="1016.1" gradientUnits="userSpaceOnUse">
<stop stop-color="#0B2546"/>
<stop offset="0.21" stop-color="#112A4E"/>
<stop offset="1" stop-color="#223C6A"/>
</linearGradient>
<linearGradient id="paint53_linear_200_2" x1="233.066" y1="1044.95" x2="233.066" y2="1016.1" gradientUnits="userSpaceOnUse">
<stop stop-color="#0B2546"/>
<stop offset="0.21" stop-color="#112A4E"/>
<stop offset="1" stop-color="#223C6A"/>
</linearGradient>
<linearGradient id="paint54_linear_200_2" x1="290.675" y1="1044.95" x2="290.675" y2="1016.1" gradientUnits="userSpaceOnUse">
<stop stop-color="#0B2546"/>
<stop offset="0.21" stop-color="#112A4E"/>
<stop offset="1" stop-color="#223C6A"/>
</linearGradient>
<linearGradient id="paint55_linear_200_2" x1="348.309" y1="1044.95" x2="348.309" y2="1016.1" gradientUnits="userSpaceOnUse">
<stop stop-color="#0B2546"/>
<stop offset="0.21" stop-color="#112A4E"/>
<stop offset="1" stop-color="#223C6A"/>
</linearGradient>
<linearGradient id="paint56_linear_200_2" x1="405.919" y1="1044.95" x2="405.919" y2="1016.1" gradientUnits="userSpaceOnUse">
<stop stop-color="#0B2546"/>
<stop offset="0.21" stop-color="#112A4E"/>
<stop offset="1" stop-color="#223C6A"/>
</linearGradient>
<linearGradient id="paint57_linear_200_2" x1="463.535" y1="1044.95" x2="463.535" y2="1016.1" gradientUnits="userSpaceOnUse">
<stop stop-color="#0B2546"/>
<stop offset="0.21" stop-color="#112A4E"/>
<stop offset="1" stop-color="#223C6A"/>
</linearGradient>
<linearGradient id="paint58_linear_200_2" x1="521.14" y1="1044.95" x2="521.14" y2="1016.1" gradientUnits="userSpaceOnUse">
<stop stop-color="#0B2546"/>
<stop offset="0.21" stop-color="#112A4E"/>
<stop offset="1" stop-color="#223C6A"/>
</linearGradient>
<linearGradient id="paint59_linear_200_2" x1="578.781" y1="1044.95" x2="578.781" y2="1016.1" gradientUnits="userSpaceOnUse">
<stop stop-color="#0B2546"/>
<stop offset="0.21" stop-color="#112A4E"/>
<stop offset="1" stop-color="#223C6A"/>
</linearGradient>
<linearGradient id="paint60_linear_200_2" x1="60.2019" y1="1110.23" x2="60.2019" y2="1081.38" gradientUnits="userSpaceOnUse">
<stop stop-color="#0B2546"/>
<stop offset="0.21" stop-color="#112A4E"/>
<stop offset="1" stop-color="#223C6A"/>
</linearGradient>
<linearGradient id="paint61_linear_200_2" x1="117.813" y1="1110.23" x2="117.813" y2="1081.38" gradientUnits="userSpaceOnUse">
<stop stop-color="#0B2546"/>
<stop offset="0.21" stop-color="#112A4E"/>
<stop offset="1" stop-color="#223C6A"/>
</linearGradient>
<linearGradient id="paint62_linear_200_2" x1="175.455" y1="1110.23" x2="175.455" y2="1081.38" gradientUnits="userSpaceOnUse">
<stop stop-color="#0B2546"/>
<stop offset="0.21" stop-color="#112A4E"/>
<stop offset="1" stop-color="#223C6A"/>
</linearGradient>
<linearGradient id="paint63_linear_200_2" x1="233.066" y1="1110.23" x2="233.066" y2="1081.38" gradientUnits="userSpaceOnUse">
<stop stop-color="#0B2546"/>
<stop offset="0.21" stop-color="#112A4E"/>
<stop offset="1" stop-color="#223C6A"/>
</linearGradient>
<linearGradient id="paint64_linear_200_2" x1="290.675" y1="1110.23" x2="290.675" y2="1081.38" gradientUnits="userSpaceOnUse">
<stop stop-color="#0B2546"/>
<stop offset="0.21" stop-color="#112A4E"/>
<stop offset="1" stop-color="#223C6A"/>
</linearGradient>
<linearGradient id="paint65_linear_200_2" x1="348.309" y1="1110.23" x2="348.309" y2="1081.38" gradientUnits="userSpaceOnUse">
<stop stop-color="#0B2546"/>
<stop offset="0.21" stop-color="#112A4E"/>
<stop offset="1" stop-color="#223C6A"/>
</linearGradient>
<linearGradient id="paint66_linear_200_2" x1="405.919" y1="1110.23" x2="405.919" y2="1081.38" gradientUnits="userSpaceOnUse">
<stop stop-color="#0B2546"/>
<stop offset="0.21" stop-color="#112A4E"/>
<stop offset="1" stop-color="#223C6A"/>
</linearGradient>
<linearGradient id="paint67_linear_200_2" x1="463.535" y1="1110.23" x2="463.535" y2="1081.38" gradientUnits="userSpaceOnUse">
<stop stop-color="#0B2546"/>
<stop offset="0.21" stop-color="#112A4E"/>
<stop offset="1" stop-color="#223C6A"/>
</linearGradient>
<linearGradient id="paint68_linear_200_2" x1="521.14" y1="1110.23" x2="521.14" y2="1081.38" gradientUnits="userSpaceOnUse">
<stop stop-color="#0B2546"/>
<stop offset="0.21" stop-color="#112A4E"/>
<stop offset="1" stop-color="#223C6A"/>
</linearGradient>
<linearGradient id="paint69_linear_200_2" x1="578.781" y1="1110.23" x2="578.781" y2="1081.38" gradientUnits="userSpaceOnUse">
<stop stop-color="#0B2546"/>
<stop offset="0.21" stop-color="#112A4E"/>
<stop offset="1" stop-color="#223C6A"/>
</linearGradient>
<linearGradient id="paint70_linear_200_2" x1="60.2018" y1="1175.51" x2="60.2018" y2="1146.66" gradientUnits="userSpaceOnUse">
<stop stop-color="#0B2546"/>
<stop offset="0.21" stop-color="#112A4E"/>
<stop offset="1" stop-color="#223C6A"/>
</linearGradient>
<linearGradient id="paint71_linear_200_2" x1="117.813" y1="1175.51" x2="117.813" y2="1146.66" gradientUnits="userSpaceOnUse">
<stop stop-color="#0B2546"/>
<stop offset="0.21" stop-color="#112A4E"/>
<stop offset="1" stop-color="#223C6A"/>
</linearGradient>
<linearGradient id="paint72_linear_200_2" x1="175.455" y1="1175.51" x2="175.455" y2="1146.66" gradientUnits="userSpaceOnUse">
<stop stop-color="#0B2546"/>
<stop offset="0.21" stop-color="#112A4E"/>
<stop offset="1" stop-color="#223C6A"/>
</linearGradient>
<linearGradient id="paint73_linear_200_2" x1="233.066" y1="1175.51" x2="233.066" y2="1146.66" gradientUnits="userSpaceOnUse">
<stop stop-color="#0B2546"/>
<stop offset="0.21" stop-color="#112A4E"/>
<stop offset="1" stop-color="#223C6A"/>
</linearGradient>
<linearGradient id="paint74_linear_200_2" x1="290.675" y1="1175.51" x2="290.675" y2="1146.66" gradientUnits="userSpaceOnUse">
<stop stop-color="#0B2546"/>
<stop offset="0.21" stop-color="#112A4E"/>
<stop offset="1" stop-color="#223C6A"/>
</linearGradient>
<linearGradient id="paint75_linear_200_2" x1="348.309" y1="1175.51" x2="348.309" y2="1146.66" gradientUnits="userSpaceOnUse">
<stop stop-color="#0B2546"/>
<stop offset="0.21" stop-color="#112A4E"/>
<stop offset="1" stop-color="#223C6A"/>
</linearGradient>
<linearGradient id="paint76_linear_200_2" x1="405.919" y1="1175.51" x2="405.919" y2="1146.66" gradientUnits="userSpaceOnUse">
<stop stop-color="#0B2546"/>
<stop offset="0.21" stop-color="#112A4E"/>
<stop offset="1" stop-color="#223C6A"/>
</linearGradient>
<linearGradient id="paint77_linear_200_2" x1="463.535" y1="1175.51" x2="463.535" y2="1146.66" gradientUnits="userSpaceOnUse">
<stop stop-color="#0B2546"/>
<stop offset="0.21" stop-color="#112A4E"/>
<stop offset="1" stop-color="#223C6A"/>
</linearGradient>
<linearGradient id="paint78_linear_200_2" x1="521.14" y1="1175.51" x2="521.14" y2="1146.66" gradientUnits="userSpaceOnUse">
<stop stop-color="#0B2546"/>
<stop offset="0.21" stop-color="#112A4E"/>
<stop offset="1" stop-color="#223C6A"/>
</linearGradient>
<linearGradient id="paint79_linear_200_2" x1="578.781" y1="1175.51" x2="578.781" y2="1146.66" gradientUnits="userSpaceOnUse">
<stop stop-color="#0B2546"/>
<stop offset="0.21" stop-color="#112A4E"/>
<stop offset="1" stop-color="#223C6A"/>
</linearGradient>
<linearGradient id="paint80_linear_200_2" x1="60.2042" y1="1240.79" x2="60.2042" y2="1211.94" gradientUnits="userSpaceOnUse">
<stop stop-color="#0B2546"/>
<stop offset="0.21" stop-color="#112A4E"/>
<stop offset="1" stop-color="#223C6A"/>
</linearGradient>
<linearGradient id="paint81_linear_200_2" x1="117.813" y1="1240.79" x2="117.813" y2="1211.94" gradientUnits="userSpaceOnUse">
<stop stop-color="#0B2546"/>
<stop offset="0.21" stop-color="#112A4E"/>
<stop offset="1" stop-color="#223C6A"/>
</linearGradient>
<linearGradient id="paint82_linear_200_2" x1="175.456" y1="1240.79" x2="175.456" y2="1211.94" gradientUnits="userSpaceOnUse">
<stop stop-color="#0B2546"/>
<stop offset="0.21" stop-color="#112A4E"/>
<stop offset="1" stop-color="#223C6A"/>
</linearGradient>
<linearGradient id="paint83_linear_200_2" x1="233.067" y1="1240.79" x2="233.067" y2="1211.94" gradientUnits="userSpaceOnUse">
<stop stop-color="#0B2546"/>
<stop offset="0.21" stop-color="#112A4E"/>
<stop offset="1" stop-color="#223C6A"/>
</linearGradient>
<linearGradient id="paint84_linear_200_2" x1="290.675" y1="1240.79" x2="290.675" y2="1211.94" gradientUnits="userSpaceOnUse">
<stop stop-color="#0B2546"/>
<stop offset="0.21" stop-color="#112A4E"/>
<stop offset="1" stop-color="#223C6A"/>
</linearGradient>
<linearGradient id="paint85_linear_200_2" x1="348.311" y1="1240.79" x2="348.311" y2="1211.94" gradientUnits="userSpaceOnUse">
<stop stop-color="#0B2546"/>
<stop offset="0.21" stop-color="#112A4E"/>
<stop offset="1" stop-color="#223C6A"/>
</linearGradient>
<linearGradient id="paint86_linear_200_2" x1="405.921" y1="1240.79" x2="405.921" y2="1211.94" gradientUnits="userSpaceOnUse">
<stop stop-color="#0B2546"/>
<stop offset="0.21" stop-color="#112A4E"/>
<stop offset="1" stop-color="#223C6A"/>
</linearGradient>
<linearGradient id="paint87_linear_200_2" x1="463.529" y1="1240.79" x2="463.529" y2="1211.94" gradientUnits="userSpaceOnUse">
<stop stop-color="#0B2546"/>
<stop offset="0.21" stop-color="#112A4E"/>
<stop offset="1" stop-color="#223C6A"/>
</linearGradient>
<linearGradient id="paint88_linear_200_2" x1="521.14" y1="1240.79" x2="521.14" y2="1211.94" gradientUnits="userSpaceOnUse">
<stop stop-color="#0B2546"/>
<stop offset="0.21" stop-color="#112A4E"/>
<stop offset="1" stop-color="#223C6A"/>
</linearGradient>
<linearGradient id="paint89_linear_200_2" x1="578.783" y1="1240.79" x2="578.783" y2="1211.94" gradientUnits="userSpaceOnUse">
<stop stop-color="#0B2546"/>
<stop offset="0.21" stop-color="#112A4E"/>
<stop offset="1" stop-color="#223C6A"/>
</linearGradient>
<linearGradient id="paint90_linear_200_2" x1="nan" y1="nan" x2="nan" y2="nan" gradientUnits="userSpaceOnUse">
<stop stop-color="#E94367"/>
<stop offset="1" stop-color="#F2B15C"/>
</linearGradient>
<linearGradient id="paint91_linear_200_2" x1="-2.58364" y1="1155.34" x2="-2.58364" y2="1267.43" gradientUnits="userSpaceOnUse">
<stop stop-color="#E94367"/>
<stop offset="1" stop-color="#F2B15C"/>
</linearGradient>
<linearGradient id="paint92_linear_200_2" x1="553.721" y1="1291.65" x2="553.721" y2="1124.59" gradientUnits="userSpaceOnUse">
<stop stop-color="#223C6A"/>
<stop offset="1" stop-color="#5A8AB7"/>
</linearGradient>
<linearGradient id="paint93_linear_200_2" x1="522.824" y1="1333.26" x2="522.824" y2="1202.08" gradientUnits="userSpaceOnUse">
<stop stop-color="#223C6A"/>
<stop offset="1" stop-color="#5A8AB7"/>
</linearGradient>
<linearGradient id="paint94_linear_200_2" x1="365.596" y1="1333.26" x2="365.596" y2="1202.08" gradientUnits="userSpaceOnUse">
<stop stop-color="#223C6A"/>
<stop offset="1" stop-color="#5A8AB7"/>
</linearGradient>
<linearGradient id="paint95_linear_200_2" x1="940.594" y1="1333.26" x2="940.594" y2="1202.08" gradientUnits="userSpaceOnUse">
<stop stop-color="#223C6A"/>
<stop offset="1" stop-color="#5A8AB7"/>
</linearGradient>
<linearGradient id="paint96_linear_200_2" x1="513.101" y1="1358.6" x2="513.101" y2="1198.8" gradientUnits="userSpaceOnUse">
<stop stop-color="#E94367"/>
<stop offset="1" stop-color="#F2B15C"/>
</linearGradient>
<linearGradient id="paint97_linear_200_2" x1="504.173" y1="1295.89" x2="504.173" y2="1153.92" gradientUnits="userSpaceOnUse">
<stop stop-color="#E94367"/>
<stop offset="1" stop-color="#F2B15C"/>
</linearGradient>
<linearGradient id="paint98_linear_200_2" x1="622.512" y1="1448.11" x2="666.193" y2="1378.88" gradientUnits="userSpaceOnUse">
<stop stop-color="#E94367"/>
<stop offset="1" stop-color="#F2B15C"/>
</linearGradient>
<linearGradient id="paint99_linear_200_2" x1="926.396" y1="1178.08" x2="1457" y2="1178.08" gradientUnits="userSpaceOnUse">
<stop stop-color="#0B2546"/>
<stop offset="0.21" stop-color="#112A4E"/>
<stop offset="1" stop-color="#223C6A"/>
</linearGradient>
<linearGradient id="paint100_linear_200_2" x1="1287.12" y1="1257.11" x2="1287.12" y2="539.501" gradientUnits="userSpaceOnUse">
<stop stop-color="#E94367"/>
<stop offset="1" stop-color="#F2B15C"/>
</linearGradient>
<linearGradient id="paint101_linear_200_2" x1="1287.01" y1="1392.59" x2="1287.01" y2="674.985" gradientUnits="userSpaceOnUse">
<stop stop-color="#E94367"/>
<stop offset="1" stop-color="#F2B15C"/>
</linearGradient>
<linearGradient id="paint102_linear_200_2" x1="1287.01" y1="1527.05" x2="1287.01" y2="809.451" gradientUnits="userSpaceOnUse">
<stop stop-color="#E94367"/>
<stop offset="1" stop-color="#F2B15C"/>
</linearGradient>
<linearGradient id="paint103_linear_200_2" x1="926.396" y1="495.055" x2="1457" y2="495.055" gradientUnits="userSpaceOnUse">
<stop stop-color="#0B2546"/>
<stop offset="0.21" stop-color="#112A4E"/>
<stop offset="1" stop-color="#223C6A"/>
</linearGradient>
<linearGradient id="paint104_linear_200_2" x1="1028.24" y1="710.209" x2="1028.24" y2="365.633" gradientUnits="userSpaceOnUse">
<stop stop-color="#E94367"/>
<stop offset="1" stop-color="#F2B15C"/>
</linearGradient>
<linearGradient id="paint105_linear_200_2" x1="64.582" y1="915.257" x2="846.788" y2="915.257" gradientUnits="userSpaceOnUse">
<stop stop-color="#0B2546"/>
<stop offset="0.21" stop-color="#112A4E"/>
<stop offset="1" stop-color="#223C6A"/>
</linearGradient>
<linearGradient id="paint106_linear_200_2" x1="2441.88" y1="382.531" x2="402.911" y2="-954.343" gradientUnits="userSpaceOnUse">
<stop stop-color="#223C6A"/>
<stop offset="1" stop-color="#5A8AB7"/>
</linearGradient>
<linearGradient id="paint107_linear_200_2" x1="1059.82" y1="606.07" x2="517.063" y2="73.5213" gradientUnits="userSpaceOnUse">
<stop stop-color="#0B2546"/>
<stop offset="0.21" stop-color="#112A4E"/>
<stop offset="1" stop-color="#223C6A"/>
</linearGradient>
<linearGradient id="paint108_linear_200_2" x1="1471.25" y1="1228.68" x2="1471.25" y2="191.731" gradientUnits="userSpaceOnUse">
<stop stop-color="#E94367"/>
<stop offset="1" stop-color="#F2B15C"/>
</linearGradient>
<linearGradient id="paint109_linear_200_2" x1="797.442" y1="863.54" x2="1077.24" y2="231.83" gradientUnits="userSpaceOnUse">
<stop stop-color="#E94367"/>
<stop offset="1" stop-color="#F2B15C"/>
</linearGradient>
<linearGradient id="paint110_linear_200_2" x1="552.34" y1="627.046" x2="552.34" y2="388.86" gradientUnits="userSpaceOnUse">
<stop stop-color="#0B2546"/>
<stop offset="0.21" stop-color="#112A4E"/>
<stop offset="1" stop-color="#223C6A"/>
</linearGradient>
<linearGradient id="paint111_linear_200_2" x1="108.583" y1="845.642" x2="442.013" y2="845.642" gradientUnits="userSpaceOnUse">
<stop stop-color="#0B2546"/>
<stop offset="0.21" stop-color="#112A4E"/>
<stop offset="1" stop-color="#223C6A"/>
</linearGradient>
<linearGradient id="paint112_linear_200_2" x1="2053.4" y1="449.051" x2="1988.21" y2="-79.3132" gradientUnits="userSpaceOnUse">
<stop stop-color="#223C6A"/>
<stop offset="1" stop-color="#5A8AB7"/>
</linearGradient>
<linearGradient id="paint113_linear_200_2" x1="1137.98" y1="482.85" x2="1137.98" y2="85.1985" gradientUnits="userSpaceOnUse">
<stop stop-color="#0B2546"/>
<stop offset="0.23" stop-color="#142D52"/>
<stop offset="0.68" stop-color="#1E3864"/>
<stop offset="1" stop-color="#223C6A"/>
</linearGradient>
<linearGradient id="paint114_linear_200_2" x1="999.869" y1="308.797" x2="999.869" y2="196.934" gradientUnits="userSpaceOnUse">
<stop stop-color="#E94367"/>
<stop offset="0.08" stop-color="#EA5662"/>
<stop offset="0.18" stop-color="#EC705F"/>
<stop offset="0.29" stop-color="#EE875D"/>
<stop offset="0.42" stop-color="#F0995C"/>
<stop offset="0.56" stop-color="#F1A75C"/>
<stop offset="0.73" stop-color="#F2AF5C"/>
<stop offset="1" stop-color="#F2B15C"/>
</linearGradient>
<linearGradient id="paint115_linear_200_2" x1="1581.64" y1="482.85" x2="1581.64" y2="85.1985" gradientUnits="userSpaceOnUse">
<stop stop-color="#0B2546"/>
<stop offset="0.23" stop-color="#142D52"/>
<stop offset="0.68" stop-color="#1E3864"/>
<stop offset="1" stop-color="#223C6A"/>
</linearGradient>
</defs>
</svg>
